<?xml version="1.0" encoding="UTF-8" standalone="no"?>
<!-- Created with Inkscape (http://www.inkscape.org/) -->

<svg
   xmlns:dc="http://purl.org/dc/elements/1.1/"
   xmlns:cc="http://creativecommons.org/ns#"
   xmlns:rdf="http://www.w3.org/1999/02/22-rdf-syntax-ns#"
   xmlns:svg="http://www.w3.org/2000/svg"
   xmlns="http://www.w3.org/2000/svg"
   xmlns:sodipodi="http://sodipodi.sourceforge.net/DTD/sodipodi-0.dtd"
   xmlns:inkscape="http://www.inkscape.org/namespaces/inkscape"
   width="177"
   height="51"
   viewBox="0 0 177 51.000001"
   id="svg2"
   version="1.1"
   inkscape:version="0.91 r13725"
   sodipodi:docname="liteblog.svg">
  <defs
     id="defs4" />
  <sodipodi:namedview
     id="base"
     pagecolor="#ffffff"
     bordercolor="#666666"
     borderopacity="1.0"
     inkscape:pageopacity="0.0"
     inkscape:pageshadow="2"
     inkscape:zoom="0.46911678"
     inkscape:cx="390.46045"
     inkscape:cy="509.09762"
     inkscape:document-units="px"
     inkscape:current-layer="layer1"
     showgrid="false"
     inkscape:window-width="1308"
     inkscape:window-height="791"
     inkscape:window-x="490"
     inkscape:window-y="118"
     inkscape:window-maximized="1"
     units="px" />
  <metadata
     id="metadata7">
    <rdf:RDF>
      <cc:Work
         rdf:about="">
        <dc:format>image/svg+xml</dc:format>
        <dc:type
           rdf:resource="http://purl.org/dc/dcmitype/StillImage" />
        <dc:title></dc:title>
      </cc:Work>
    </rdf:RDF>
  </metadata>
  <g
     inkscape:label="Camada 1"
     inkscape:groupmode="layer"
     id="layer1"
     transform="translate(0,-1001.3622)">
    <path
       style="fill:#000000;stroke:#ececec;stroke-width:0.54380476"
       d="m 160.96533,1050.9759 c -2.78083,-1.3764 -5.03109,-3.9059 -5.03109,-5.6554 0,-1.1811 2.21615,-3.5324 3.32934,-3.5324 0.25501,0 1.11509,1.04 1.91128,2.3112 1.75561,2.8028 2.17787,3.1079 4.31713,3.1185 2.28062,0.011 3.87866,-1.8343 5.16403,-5.9642 1.18285,-3.8005 2.04576,-12.5168 1.23915,-12.5168 -0.28251,0 -1.46298,0.9721 -2.62325,2.1603 -7.14835,7.3206 -18.95008,6.0652 -19.73458,-2.0993 -0.83824,-8.7237 9.95141,-15.6524 20.31207,-13.0435 2.09087,0.5265 2.57734,0.4821 3.45879,-0.3156 0.56414,-0.5106 1.5965,-0.8474 2.29412,-0.7486 l 1.26841,0.1796 -0.0346,9.5166 c -0.0463,12.715 -1.35518,19.7508 -4.43472,23.8378 -2.94701,3.9111 -7.08333,4.9064 -11.43606,2.7518 z m 2.31028,-21.0785 c 3.36789,-1.5338 8.77687,-8.1586 7.37084,-9.0276 -0.28069,-0.1735 -1.88086,-0.5688 -3.55593,-0.8784 -4.33501,-0.8014 -8.16468,0.3685 -10.81717,3.3045 -4.81355,5.328 -0.054,9.8152 7.00226,6.6015 z m -76.805196,9.5795 c -0.293589,-0.3738 -0.931293,-3.861 -1.417122,-7.7492 -0.48583,-3.8882 -1.155765,-8.585 -1.488742,-10.4372 -0.549678,-3.0577 -0.738253,-3.3831 -2.04824,-3.5348 -1.102021,-0.1275 -1.482135,-0.5063 -1.609233,-1.6037 -0.205226,-1.7719 1.782592,-3.3285 6.260085,-4.9022 7.640783,-2.6856 14.519928,-1.5781 16.273968,2.6199 1.01921,2.4394 0.68669,5.2411 -0.87231,7.3497 -0.60647,0.8203 -1.10266,1.6143 -1.10266,1.7644 0,0.1501 1.02525,0.549 2.27832,0.8865 1.25308,0.3374 3.08842,1.4235 4.07854,2.4137 1.52152,1.5215 1.80021,2.1916 1.80021,4.3287 0,6.3412 -5.16758,9.334 -13.646948,7.9038 -3.624497,-0.6113 -3.904698,-0.5838 -5.054616,0.4964 -1.376642,1.2933 -2.664078,1.4664 -3.451252,0.464 z m 16.264096,-6.2021 c 0.54696,-0.495 0.99448,-1.4739 0.99448,-2.1752 0,-3.6984 -6.701558,-5.5378 -12.37156,-3.3958 -1.391825,0.5258 -1.688101,2.9391 -0.543805,4.4294 1.523518,1.9843 10.083885,2.8041 11.920885,1.1416 z m -9.714055,-10.8404 c 2.521645,-0.8592 5.270485,-3.4082 5.270485,-4.8874 0,-1.8578 -2.069052,-2.9494 -5.573998,-2.9409 -4.877429,0.012 -5.010911,0.1642 -4.225711,4.8194 0.396602,2.3514 0.916436,3.8732 1.322995,3.8732 0.368335,0 1.811136,-0.3889 3.206229,-0.8643 z M 39.6583,1038.0421 c -0.442657,-0.2735 -0.895129,-2.458 -1.206175,-5.8232 -0.649401,-7.0259 -1.051087,-9.3898 -1.659436,-9.7658 -0.273616,-0.1691 -2.3733,0.2072 -4.665959,0.8362 -4.644941,1.2743 -5.621859,1.1606 -5.609689,-0.6533 0.01392,-2.0697 0.745709,-2.6228 4.875699,-3.6851 2.180032,-0.5608 4.20999,-1.2659 4.511024,-1.5669 0.367231,-0.3672 0.141139,-2.6142 -0.687136,-6.8289 -1.394505,-7.096 -1.192058,-7.921 1.943733,-7.921 2.347964,0 2.671739,0.6636 3.530315,7.2354 0.383132,2.9326 0.973138,5.7103 1.311124,6.1725 0.528072,0.7222 1.374885,0.7686 6.019886,0.3298 2.972948,-0.2809 5.701939,-0.4052 6.064418,-0.2764 0.975094,0.3467 1.382807,2.1217 0.756246,3.2924 -0.45659,0.8532 -1.427753,1.0822 -5.808138,1.37 -2.892927,0.19 -5.556918,0.592 -5.919978,0.8933 -0.516957,0.4291 -0.504743,1.581 0.05632,5.3122 0.798474,5.31 0.953915,10.2901 0.332064,10.639 -1.047015,0.5873 -3.205957,0.8344 -3.844314,0.4398 z M 2.2780868,1037.387 c -0.2374958,-0.3843 -0.5101921,-3.1608 -0.6059942,-6.1699 -0.095808,-3.0092 -0.5089034,-8.5302 -0.91799681,-12.2688 -0.66499166,-6.0773 -0.65375121,-6.9012 0.10606367,-7.7756 0.54924824,-0.6321 1.43176174,-0.9207 2.49492184,-0.8157 2.029104,0.2002 2.1985698,0.9076 3.1651501,13.2136 l 0.6834157,8.7009 5.7099499,0 5.70995,0 0.163446,1.4061 c 0.246278,2.1186 -1.082221,2.8017 -6.303508,3.2412 -2.6048188,0.2192 -5.8694853,0.5714 -7.2548115,0.7827 -1.810065,0.276 -2.6402754,0.1876 -2.9505867,-0.3145 z m 60.1845392,-0.1879 c -2.887342,-0.9416 -5.806992,-3.6474 -6.631514,-6.1457 -0.371196,-1.1247 -1.128662,-2.0385 -1.948043,-2.35 -1.101732,-0.4189 -1.310309,-0.821 -1.170257,-2.2561 0.12607,-1.2918 0.491251,-1.8227 1.402956,-2.0396 0.677889,-0.1613 2.1493,-1.5074 3.269804,-2.9914 3.021423,-4.0014 5.818863,-5.759 9.730478,-6.1137 2.559955,-0.2322 3.791178,-0.057 5.779508,0.8226 5.282579,2.3368 6.301838,8.1404 1.848245,10.5239 -0.657449,0.3518 -3.854586,0.945 -7.104749,1.3181 -6.199069,0.7117 -7.13363,1.0829 -6.550666,2.602 0.584155,1.5224 3.226752,2.518 6.682968,2.518 2.656579,0 3.917347,-0.3477 6.901867,-1.9033 2.008352,-1.0468 3.733475,-1.9033 3.833611,-1.9033 0.100136,0 0.588881,0.6208 1.086098,1.3797 0.861316,1.3145 0.847014,1.4404 -0.302633,2.6642 -3.229716,3.4379 -11.985331,5.4539 -16.827673,3.8746 z m 5.554383,-13.6746 c 3.311711,-0.3781 4.284981,-1.2255 3.077946,-2.6799 -1.314202,-1.5835 -8.350622,-0.5108 -9.567799,1.4587 -0.696124,1.1263 0.319584,2.1713 1.823878,1.8763 0.822755,-0.1613 2.922439,-0.4561 4.665975,-0.6551 z m 60.837781,13.2996 c -3.86944,-1.9153 -6.45836,-6.5177 -5.9785,-10.628 0.18065,-1.5475 -0.0195,-2.079 -1.03264,-2.7429 -2.86067,-1.8743 -0.88467,-4.6241 5.38587,-7.4949 5.84869,-2.6776 11.37571,-2.3454 15.33949,0.9218 7.03148,5.796 5.23123,16.7765 -3.3393,20.368 -2.69843,1.1308 -7.64201,0.9287 -10.37492,-0.424 z m 10.17442,-4.6838 c 0.77363,-0.5646 1.84814,-1.9142 2.38781,-2.9989 2.64671,-5.32 -3.11946,-11.4315 -9.30406,-9.8612 -2.67376,0.6789 -4.19553,2.9199 -4.14128,6.0986 0.11332,6.6393 6.15938,10.3363 11.05753,6.7615 z m -117.305976,4.6448 c -0.383105,-0.3831 -0.654485,-2.2357 -0.657215,-4.4864 -0.0027,-2.1086 -0.251113,-6.6183 -0.552337,-10.0216 -0.402079,-4.5427 -0.383143,-6.386 0.07124,-6.9335 0.797419,-0.9609 3.43485,-0.9633 4.231029,0 0.378483,0.456 0.751212,4.6382 0.967614,10.8571 l 0.351988,10.1153 -1.480231,0.5628 c -1.877611,0.7139 -2.136364,0.7059 -2.932086,-0.09 z m 91.576126,-2.5233 c -0.15526,-0.2512 -0.55345,-2.7595 -0.88487,-5.574 -0.33142,-2.8144 -1.19768,-8.8598 -1.92502,-13.434 -0.72734,-4.5742 -1.32243,-9.0316 -1.32243,-9.9053 0,-2.3532 2.53633,-3.4912 4.5307,-2.0329 0.72046,0.5268 1.22986,2.9024 2.24469,10.4682 2.5282,18.8484 2.4504,20.9348 -0.78058,20.9348 -0.86911,0 -1.70722,-0.2055 -1.86249,-0.4568 z m -92.46175,-27.0442 c -1.835994,-1.836 -0.657226,-4.0397 2.160851,-4.0397 2.692579,0 4.466432,2.633 2.857689,4.2417 -0.930787,0.9308 -4.009685,0.8069 -5.01854,-0.202 z"
       id="path4147"
       inkscape:connector-curvature="0" />
  </g>
</svg>
